<svg width="184" height="48" viewBox="0 0 184 48" fill="none" xmlns="http://www.w3.org/2000/svg">
<rect width="184" height="48" fill="#08457D"/>
<path d="M97.152 18.576V30H102.224C103.392 30 104.32 29.76 104.992 29.312C105.776 28.768 106.176 27.936 106.176 26.816C106.176 26.048 105.952 25.44 105.536 24.96C105.12 24.48 104.544 24.16 103.792 24.032C104.368 23.84 104.832 23.536 105.184 23.12C105.52 22.656 105.696 22.096 105.696 21.456C105.696 20.56 105.392 19.856 104.784 19.344C104.16 18.832 103.312 18.576 102.256 18.576H97.152ZM98.464 19.68H101.952C102.752 19.68 103.36 19.824 103.776 20.144C104.192 20.464 104.4 20.944 104.4 21.584C104.4 22.24 104.176 22.736 103.76 23.072C103.344 23.392 102.736 23.568 101.936 23.568H98.464V19.68ZM98.464 24.656H102.112C102.992 24.656 103.664 24.816 104.128 25.168C104.608 25.52 104.864 26.064 104.864 26.8C104.864 27.536 104.576 28.096 104.016 28.448C103.536 28.736 102.912 28.896 102.112 28.896H98.464V24.656ZM111.42 21.504C110.428 21.504 109.644 21.696 109.036 22.08C108.364 22.496 107.932 23.152 107.756 24.016L109.02 24.112C109.148 23.584 109.42 23.184 109.852 22.928C110.236 22.672 110.732 22.56 111.34 22.56C112.78 22.56 113.5 23.248 113.5 24.64V25.072L111.516 25.104C110.268 25.12 109.308 25.36 108.636 25.808C107.868 26.288 107.5 26.992 107.5 27.936C107.5 28.608 107.756 29.168 108.268 29.6C108.764 30.016 109.42 30.224 110.252 30.224C111.02 30.224 111.708 30.048 112.316 29.712C112.828 29.424 113.26 29.056 113.58 28.608V30H114.78V24.688C114.78 23.728 114.524 22.976 114.044 22.432C113.468 21.808 112.604 21.504 111.42 21.504ZM113.5 26.032V26.736C113.5 27.376 113.196 27.952 112.604 28.448C111.996 28.96 111.308 29.216 110.524 29.216C110.012 29.216 109.596 29.088 109.276 28.848C108.956 28.592 108.812 28.288 108.812 27.904C108.812 26.704 109.74 26.096 111.596 26.064L113.5 26.032ZM117.814 18.608C117.542 18.608 117.318 18.688 117.126 18.88C116.934 19.04 116.854 19.264 116.854 19.552C116.854 19.824 116.934 20.048 117.126 20.24C117.318 20.416 117.542 20.512 117.814 20.512C118.086 20.512 118.31 20.416 118.502 20.24C118.694 20.048 118.79 19.824 118.79 19.552C118.79 19.264 118.694 19.04 118.502 18.88C118.31 18.688 118.086 18.608 117.814 18.608ZM117.174 21.728V30H118.454V21.728H117.174ZM120.419 21.728V22.8H125.315L120.259 29.072V30H127.251V28.928H121.923L126.995 22.624V21.728H120.419ZM132.056 21.504C130.856 21.504 129.912 21.936 129.208 22.8C128.504 23.616 128.168 24.64 128.168 25.856C128.168 27.2 128.52 28.256 129.256 29.056C129.96 29.824 130.92 30.224 132.104 30.224C133.176 30.224 134.056 29.904 134.744 29.296C135.304 28.784 135.672 28.144 135.864 27.344H134.584C134.376 27.92 134.104 28.352 133.752 28.64C133.336 28.976 132.776 29.152 132.104 29.152C131.32 29.152 130.696 28.896 130.248 28.384C129.8 27.872 129.56 27.152 129.496 26.224H136.024C135.992 24.784 135.672 23.648 135.064 22.848C134.392 21.952 133.384 21.504 132.056 21.504ZM132.088 22.576C133.656 22.576 134.536 23.456 134.696 25.232H129.528C129.608 24.416 129.864 23.776 130.312 23.296C130.76 22.816 131.352 22.576 132.088 22.576Z" fill="white"/>
<g clip-path="url(#clip0)">
<path d="M29.6591 29.5068H26.7295L23.135 25.3014L20.0869 29.5234H18V17.7318H20.0869V26.1226L26.0844 17.7318H28.586L24.4912 23.4032L29.6591 29.5068Z" fill="white"/>
<path d="M37.4079 21.7742V30.4674C37.4204 30.9457 37.328 31.4208 37.1374 31.8587C36.9467 32.2967 36.6626 32.6866 36.3052 33.0006C35.4985 33.692 34.4621 34.0484 33.4052 33.9979C31.6234 33.9979 30.3802 33.4295 29.6758 32.2925L31.3216 30.883C31.5718 31.2266 31.8847 31.5188 32.2433 31.744C32.6035 31.929 33.0048 32.0171 33.4085 32C33.6693 32.0103 33.9296 31.9683 34.1742 31.8765C34.4189 31.7846 34.6431 31.6447 34.8338 31.4648C35.0116 31.2983 35.1527 31.096 35.2479 30.8709C35.3432 30.6458 35.3905 30.403 35.3868 30.1583V28.8285C35.0688 29.1405 34.6911 29.3837 34.2768 29.5432C33.8625 29.7027 33.4203 29.7751 32.9773 29.756C32.5639 29.773 32.1516 29.7009 31.7679 29.5444C31.3842 29.3879 31.038 29.1507 30.7522 28.8485C30.176 28.2088 29.8732 27.3654 29.9095 26.5015V21.7742H31.9339V26.0527C31.9068 26.5338 32.0582 27.0079 32.3585 27.3824C32.497 27.5454 32.6702 27.6747 32.8651 27.7605C33.0601 27.8463 33.2718 27.8863 33.4842 27.8777C34.7526 27.8777 35.3868 26.9912 35.3868 25.2182V21.7742H37.4079Z" fill="white"/>
<path d="M41.4296 17.1101V27.06C41.4264 27.1641 41.4467 27.2675 41.4889 27.3625C41.5311 27.4576 41.5941 27.5417 41.6732 27.6085C41.8509 27.7526 42.0741 27.827 42.3019 27.818C42.6289 27.802 42.9508 27.7289 43.2532 27.6019L43.6152 29.3206C43.1032 29.579 42.5416 29.7219 41.9694 29.7395C41.6308 29.7606 41.2916 29.7092 40.9741 29.5884C40.6565 29.4676 40.368 29.2804 40.1273 29.0389C39.8866 28.7974 39.6993 28.5071 39.5777 28.1873C39.456 27.8674 39.4029 27.5251 39.4217 27.183V17.1101H41.4296Z" fill="white"/>
<path d="M44.8504 18.2969C45.0206 18.1221 45.2382 18.0021 45.4759 17.9521C45.7136 17.9022 45.9606 17.9245 46.1857 18.0163C46.4108 18.1081 46.6039 18.2653 46.7406 18.4679C46.8773 18.6705 46.9515 18.9095 46.9538 19.1546C46.9577 19.314 46.9283 19.4724 46.8676 19.6196C46.807 19.7668 46.7163 19.8995 46.6016 20.009C46.3646 20.2321 46.0498 20.3516 45.726 20.3414C45.5644 20.3483 45.4031 20.3224 45.2516 20.2653C45.1001 20.2082 44.9614 20.1211 44.8438 20.009C44.7336 19.8972 44.6474 19.7636 44.5907 19.6166C44.5341 19.4695 44.5082 19.3123 44.5146 19.1546C44.5113 18.9963 44.5393 18.8389 44.5969 18.6916C44.6546 18.5443 44.7407 18.4101 44.8504 18.2969Z" fill="white"/>
<path d="M46.7373 21.7742H44.7129V29.5067H46.7373V21.7742Z" fill="white"/>
<path d="M56.6976 21.7742V30.3145C56.7224 30.8301 56.6262 31.3443 56.4168 31.8151C56.2075 32.286 55.8908 32.7002 55.4928 33.0239C54.601 33.7045 53.5022 34.0501 52.3855 34.0013C50.6036 34.0013 49.3604 33.4328 48.656 32.2959L50.3018 30.8863C50.5521 31.2299 50.8649 31.5221 51.2235 31.7474C51.5837 31.9323 51.985 32.0204 52.3888 32.0033C52.9792 32.028 53.5602 31.8473 54.0346 31.4914C54.249 31.3111 54.4182 31.0822 54.5286 30.8235C54.639 30.5647 54.6874 30.2833 54.6699 30.0021V28.9017C53.9497 29.4725 53.0536 29.7691 52.1386 29.7394C51.6439 29.7417 51.1541 29.6397 50.7007 29.4399C50.2473 29.2402 49.8401 28.947 49.5053 28.5792C49.1335 28.1918 48.8427 27.7329 48.6498 27.2298C48.457 26.7267 48.3662 26.1896 48.3828 25.6504C48.3661 25.1091 48.4575 24.57 48.6515 24.0651C48.8454 23.5602 49.138 23.0999 49.5118 22.7117C49.8463 22.3427 50.2532 22.0481 50.7066 21.8467C51.1599 21.6452 51.6499 21.5413 52.1452 21.5415C53.0632 21.5095 53.9619 21.8128 54.6765 22.3958V21.7742H56.6976ZM52.504 27.9609C52.7864 27.9611 53.0661 27.9044 53.3266 27.7943C53.5872 27.6841 53.8234 27.5226 54.0214 27.3193C54.24 27.104 54.4115 26.8449 54.5249 26.5586C54.6383 26.2723 54.6911 25.9652 54.6798 25.6571C54.6895 25.3491 54.636 25.0425 54.5227 24.7565C54.4094 24.4704 54.2387 24.2111 54.0214 23.9949C53.8254 23.7871 53.5901 23.6213 53.3294 23.5071C53.0688 23.3928 52.7881 23.3326 52.504 23.33C52.2149 23.3206 51.9271 23.3729 51.6594 23.4835C51.3917 23.5941 51.1501 23.7604 50.9503 23.9716C50.7432 24.1989 50.583 24.4656 50.479 24.7562C50.375 25.0467 50.3293 25.3552 50.3446 25.6637C50.3294 25.9702 50.3752 26.2767 50.4792 26.565C50.5832 26.8534 50.7434 27.1178 50.9503 27.3425C51.1523 27.5492 51.3949 27.711 51.6624 27.8175C51.93 27.924 52.2166 27.9728 52.504 27.9609Z" fill="white"/>
<path d="M66.0718 25.4942V26.1923H60.239C60.3199 26.6926 60.5603 27.1525 60.9237 27.5021C61.258 27.8182 61.7001 27.992 62.158 27.9875C62.5381 28.0128 62.9177 27.9303 63.2539 27.7494C63.59 27.5685 63.8695 27.2963 64.0606 26.9636L65.871 27.3492C65.5863 28.0854 65.0752 28.71 64.4128 29.1311C63.7336 29.5454 62.9514 29.7554 62.158 29.7361C61.6399 29.7475 61.1249 29.6517 60.6448 29.4544C60.1648 29.2572 59.7298 28.9627 59.3667 28.5892C58.9891 28.2027 58.6937 27.7424 58.4984 27.2365C58.3031 26.7306 58.2122 26.1897 58.2311 25.6471C58.2117 25.1023 58.303 24.5593 58.4994 24.0516C58.6959 23.5439 58.9933 23.0822 59.3733 22.695C59.7393 22.3183 60.1778 22.0212 60.6618 21.8222C61.1459 21.6233 61.6652 21.5266 62.1877 21.5382C62.6873 21.5303 63.1834 21.624 63.6465 21.8136C64.1097 22.0032 64.5303 22.2849 64.8835 22.6419C65.2586 23.0143 65.5567 23.4582 65.7607 23.9478C65.9646 24.4374 66.0704 24.963 66.0718 25.4942ZM62.1877 23.3234C61.7687 23.3245 61.36 23.4543 61.0158 23.6957C60.6542 23.943 60.399 24.3196 60.3015 24.7495H64.0014C63.9092 24.3233 63.6686 23.9446 63.3233 23.6824C62.9932 23.4417 62.5947 23.3157 62.1877 23.3234Z" fill="white"/>
<path d="M72.0394 21.5415C72.4528 21.5243 72.8652 21.5963 73.2489 21.7528C73.6326 21.9093 73.9789 22.1467 74.2645 22.449C74.84 23.0891 75.1428 23.9322 75.1072 24.7961V29.5067H73.0828V25.2315C73.1096 24.751 72.9595 24.2774 72.6615 23.9018C72.5228 23.7379 72.3492 23.6079 72.1537 23.5215C71.9581 23.4352 71.7457 23.3947 71.5324 23.4031C70.2662 23.4031 69.632 24.2896 69.6298 26.0626V29.4868H67.6055V21.7742H69.62V22.4723C69.9393 22.1591 70.3186 21.915 70.7346 21.7549C71.1506 21.5949 71.5946 21.5222 72.0394 21.5415Z" fill="white"/>
<path d="M80.6173 27.9111C81.6179 27.9111 82.2982 27.3947 82.6581 26.3619L84.5278 26.844C84.3252 27.6978 83.8236 28.4487 83.1156 28.9583C82.3917 29.4875 81.5173 29.7651 80.6238 29.7495C79.5246 29.7734 78.4602 29.3589 77.6613 28.5959C77.2628 28.2226 76.948 27.7675 76.7379 27.2613C76.5279 26.755 76.4275 26.2092 76.4434 25.6605C76.4257 25.1091 76.5253 24.5603 76.7354 24.0511C76.9455 23.5418 77.2612 23.084 77.6613 22.7084C78.4591 21.9432 79.5239 21.5274 80.6238 21.5515C81.5012 21.5419 82.3585 21.8169 83.0696 22.3361C83.7767 22.8368 84.2935 23.5662 84.5344 24.4039L82.5791 24.969C82.2916 23.9141 81.6333 23.3866 80.6041 23.3866C80.3093 23.3768 80.0157 23.4292 79.742 23.5402C79.4683 23.6512 79.2204 23.8185 79.0142 24.0315C78.8076 24.2482 78.6464 24.5047 78.5401 24.7857C78.4337 25.0668 78.3845 25.3665 78.3954 25.6671C78.385 25.9673 78.435 26.2664 78.5425 26.5464C78.65 26.8264 78.8128 27.0815 79.0208 27.2961C79.2309 27.5037 79.4811 27.6654 79.7557 27.7712C80.0304 27.877 80.3236 27.9246 80.6173 27.9111Z" fill="white"/>
<path d="M93.2144 25.4942V26.1923H87.3948C87.4666 26.6899 87.6978 27.1499 88.0531 27.5021C88.3874 27.8182 88.8295 27.992 89.2875 27.9875C89.6697 28.0154 90.052 27.9341 90.3908 27.7531C90.7295 27.5721 91.0111 27.2985 91.2032 26.9636L93.0137 27.3492C92.7289 28.0855 92.2178 28.71 91.5554 29.1311C90.8761 29.5451 90.0939 29.755 89.3006 29.7361C88.7825 29.7478 88.2674 29.652 87.7873 29.4547C87.3072 29.2575 86.8722 28.9629 86.5093 28.5892C86.1317 28.2027 85.8362 27.7424 85.641 27.2365C85.4457 26.7306 85.3547 26.1898 85.3737 25.6471C85.3542 25.1024 85.4456 24.5594 85.642 24.0516C85.8385 23.5439 86.1359 23.0822 86.5159 22.6951C86.8817 22.3181 87.3202 22.021 87.8043 21.822C88.2884 21.623 88.8078 21.5264 89.3303 21.5382C89.8295 21.5301 90.3252 21.6236 90.7878 21.8132C91.2504 22.0029 91.6705 22.2847 92.0229 22.6419C92.3996 23.0131 92.6992 23.4567 92.9038 23.9466C93.1084 24.4364 93.214 24.9626 93.2144 25.4942ZM89.3303 23.3234C88.9113 23.3245 88.5026 23.4544 88.1584 23.6957C87.7959 23.942 87.5403 24.3191 87.4441 24.7496H91.1407C91.051 24.3231 90.8112 23.944 90.4659 23.6824C90.1358 23.4417 89.7373 23.3157 89.3303 23.3234Z" fill="white"/>
</g>
<defs>
<clipPath id="clip0">
<rect width="76" height="18" fill="white" transform="translate(17 17)"/>
</clipPath>
</defs>
</svg>
