<svg width="184" height="22" viewBox="0 0 184 22" fill="none" xmlns="http://www.w3.org/2000/svg">
<path d="M18.98 6.004V16H20.506V8.86H20.562L23.628 16H24.944L28.01 8.86H28.066V16H29.592V6.004H27.786L24.314 14.012H24.272L20.786 6.004H18.98ZM31.5581 6.004V16H38.5721V14.698H33.0701V6.004H31.5581ZM43.3296 5.808C42.2656 5.808 41.3836 6.046 40.6836 6.522C39.9416 7.026 39.5776 7.712 39.5776 8.594C39.5776 9.462 39.9556 10.134 40.7256 10.596C41.0336 10.764 41.7896 11.03 43.0216 11.422C44.1276 11.758 44.7856 11.982 45.0096 12.094C45.6396 12.416 45.9616 12.85 45.9616 13.41C45.9616 13.858 45.7376 14.208 45.2896 14.46C44.8416 14.712 44.2396 14.852 43.4836 14.852C42.6436 14.852 42.0276 14.698 41.6216 14.39C41.1736 14.054 40.8936 13.48 40.7816 12.696H39.2696C39.3536 13.956 39.8016 14.88 40.6276 15.468C41.3136 15.944 42.2656 16.196 43.4836 16.196C44.7436 16.196 45.7236 15.944 46.4236 15.44C47.1236 14.922 47.4736 14.222 47.4736 13.326C47.4736 12.402 47.0396 11.688 46.1856 11.17C45.7936 10.932 44.9116 10.61 43.5676 10.19C42.6296 9.91 42.0556 9.7 41.8316 9.574C41.3276 9.308 41.0896 8.958 41.0896 8.51C41.0896 8.006 41.2996 7.642 41.7336 7.418C42.0836 7.222 42.5876 7.124 43.2456 7.124C44.0016 7.124 44.5616 7.264 44.9536 7.558C45.3456 7.838 45.5976 8.314 45.7376 8.958H47.2496C47.1516 7.866 46.7596 7.068 46.0596 6.55C45.4016 6.046 44.4916 5.808 43.3296 5.808ZM53.3181 5.808C51.7921 5.808 50.5881 6.298 49.7201 7.306C48.8801 8.258 48.4741 9.49 48.4741 11.016C48.4741 12.528 48.8801 13.76 49.7201 14.712C50.5881 15.692 51.7921 16.196 53.3181 16.196C54.3541 16.196 55.2361 15.972 55.9781 15.524C56.3421 16.014 56.7061 16.532 57.0841 17.078L58.0641 16.21C57.7001 15.678 57.3221 15.174 56.9581 14.684C57.7701 13.732 58.1761 12.514 58.1761 11.016C58.1761 9.476 57.7561 8.23 56.9161 7.292C56.0341 6.298 54.8301 5.808 53.3181 5.808ZM53.3181 7.152C54.3821 7.152 55.2081 7.488 55.7821 8.188C56.3421 8.874 56.6361 9.812 56.6361 11.016C56.6361 12.038 56.4261 12.864 56.0061 13.508C55.5021 12.92 54.9981 12.346 54.4941 11.814L53.6121 12.682C54.1021 13.2 54.6061 13.774 55.1101 14.404C54.6201 14.698 54.0181 14.852 53.3181 14.852C52.2541 14.852 51.4281 14.488 50.8401 13.788C50.2801 13.102 50.0001 12.178 50.0001 11.016C50.0001 9.84 50.2801 8.916 50.8401 8.23C51.4281 7.502 52.2541 7.152 53.3181 7.152ZM59.7222 6.004V16H66.7362V14.698H61.2342V6.004H59.7222ZM72.6558 6.004V16H79.6698V14.698H74.1678V6.004H72.6558ZM83.7973 6.004L79.9473 16H81.5713L82.5093 13.424H86.8073L87.7453 16H89.3833L85.5333 6.004H83.7973ZM82.9713 12.164L84.6373 7.642H84.6933L86.3453 12.164H82.9713ZM90.3609 6.004V16H94.9249C95.9889 16 96.8149 15.804 97.4029 15.412C98.0889 14.936 98.4389 14.208 98.4389 13.2C98.4389 12.528 98.2709 11.982 97.9349 11.576C97.5989 11.17 97.0949 10.904 96.4369 10.778C96.9409 10.596 97.3189 10.316 97.5989 9.952C97.8789 9.56 98.0189 9.084 98.0189 8.524C98.0189 7.754 97.7529 7.152 97.2209 6.704C96.6609 6.228 95.9049 6.004 94.9249 6.004H90.3609ZM91.8869 7.264H94.5469C95.2189 7.264 95.7229 7.376 96.0309 7.614C96.3389 7.838 96.4929 8.202 96.4929 8.706C96.4929 9.238 96.3389 9.63 96.0309 9.882C95.7229 10.12 95.2189 10.246 94.5189 10.246H91.8869V7.264ZM91.8869 11.492H94.7569C95.4849 11.492 96.0309 11.618 96.3809 11.884C96.7309 12.15 96.9129 12.584 96.9129 13.172C96.9129 13.746 96.6749 14.166 96.2269 14.432C95.8629 14.628 95.3589 14.74 94.7149 14.74H91.8869V11.492Z" fill="#FDFDFD"/>
</svg>
