<?xml version="1.0" standalone="no"?><!DOCTYPE svg PUBLIC "-//W3C//DTD SVG 1.1//EN" "http://www.w3.org/Graphics/SVG/1.1/DTD/svg11.dtd"><svg t="1636365226046" class="icon" viewBox="0 0 1024 1024" version="1.1" xmlns="http://www.w3.org/2000/svg" p-id="22817" xmlns:xlink="http://www.w3.org/1999/xlink" width="200" height="200"><defs><style type="text/css"></style></defs><path d="M160 128a32 32 0 0 1 32-32h433.28l174.72 203.84V896a32 32 0 0 1-32 32H192a32 32 0 0 1-32-32V128z" fill="#2E8FE8" p-id="22818"></path><path d="M256 396.8c0-7.04 5.76-12.8 12.8-12.8h422.4c7.04 0 12.8 5.76 12.8 12.8v38.4a12.8 12.8 0 0 1-12.8 12.8H268.8a12.8 12.8 0 0 1-12.8-12.8v-38.4zM256 524.8c0-7.04 5.76-12.8 12.8-12.8h422.4c7.04 0 12.8 5.76 12.8 12.8v38.4a12.8 12.8 0 0 1-12.8 12.8H268.8a12.8 12.8 0 0 1-12.8-12.8v-38.4zM256 652.8c0-7.04 5.76-12.8 12.8-12.8h230.4c7.04 0 12.8 5.76 12.8 12.8v38.4a12.8 12.8 0 0 1-12.8 12.8H268.8a12.8 12.8 0 0 1-12.8-12.8v-38.4z" fill="#F0F8FE" p-id="22819"></path></svg>