<?xml version="1.0" standalone="no"?><!DOCTYPE svg PUBLIC "-//W3C//DTD SVG 1.1//EN" "http://www.w3.org/Graphics/SVG/1.1/DTD/svg11.dtd"><svg t="1636365235916" class="icon" viewBox="0 0 1024 1024" version="1.1" xmlns="http://www.w3.org/2000/svg" p-id="22946" xmlns:xlink="http://www.w3.org/1999/xlink" width="200" height="200"><defs><style type="text/css"></style></defs><path d="M160 128a32 32 0 0 1 32-32h433.28l174.72 203.84V896a32 32 0 0 1-32 32H192a32 32 0 0 1-32-32V128z" fill="#FFB067" p-id="22947"></path><path d="M236.8 384a12.8 12.8 0 0 0-12.8 12.8v102.4c0 7.04 5.76 12.8 12.8 12.8h134.4a12.8 12.8 0 0 0 12.8-12.8v-32h102.528l-46.4 162.368a32 32 0 0 1-30.72 23.232H384v-32a12.8 12.8 0 0 0-12.8-12.8H236.8a12.8 12.8 0 0 0-12.8 12.8v102.4c0 7.04 5.76 12.8 12.8 12.8h134.4a12.8 12.8 0 0 0 12.8-12.8v-32h25.408a70.4 70.4 0 0 0 67.648-51.072L526.464 467.2H576v32c0 7.04 5.76 12.8 12.8 12.8h134.4a12.8 12.8 0 0 0 12.8-12.8V396.8a12.8 12.8 0 0 0-12.8-12.8H588.8a12.8 12.8 0 0 0-12.8 12.8v32H384v-32a12.8 12.8 0 0 0-12.8-12.8H236.8z" fill="#FFFFFF" p-id="22948"></path></svg>