<svg width="24" height="24" viewBox="0 0 24 24" fill="none" xmlns="http://www.w3.org/2000/svg">
<path d="M4.5 3C3.67157 3 3 3.67157 3 4.5V9.5C3 10.3284 3.67157 11 4.5 11H9.5C10.3284 11 11 10.3284 11 9.5V4.5C11 3.67157 10.3284 3 9.5 3H4.5ZM9.5 4.5V9.5H4.5V4.5H9.5Z" fill="white"/>
<path d="M14.5 3C13.6716 3 13 3.67157 13 4.5V9.5C13 10.3284 13.6716 11 14.5 11H19.5C20.3284 11 21 10.3284 21 9.5V4.5C21 3.67157 20.3284 3 19.5 3H14.5ZM19.5 4.5V9.5H14.5V4.5H19.5Z" fill="white"/>
<path d="M3 14.5C3 13.6716 3.67157 13 4.5 13H9.5C10.3284 13 11 13.6716 11 14.5V19.5C11 20.3284 10.3284 21 9.5 21H4.5C3.67157 21 3 20.3284 3 19.5V14.5ZM4.5 14.5V19.5H9.5V14.5H4.5Z" fill="white"/>
<path d="M19.5 14.5V19.5H14.5V14.5H19.5ZM14.5 13C13.6716 13 13 13.6716 13 14.5V19.5C13 20.3284 13.6716 21 14.5 21H19.5C20.3284 21 21 20.3284 21 19.5V14.5C21 13.6716 20.3284 13 19.5 13H14.5Z" fill="#9DCEFB"/>
</svg>
