<svg width="24" height="24" viewBox="0 0 24 24" fill="none" xmlns="http://www.w3.org/2000/svg">
<path d="M7 9V7H5V9L7 9ZM8.5 10.5L16 10.5V12H8.5V10.5ZM19 7V8.5L8.5 8.5V7H19Z" fill="#9DCEFB"/>
<path d="M7 9V7H5V9L7 9ZM8.5 10.5L16 10.5V12H8.5V10.5ZM19 7V8.5L8.5 8.5V7H19Z" stroke="#9DCEFB"/>
<path d="M2.5 2C1.67157 2 1 2.67157 1 3.5V16.5C1 17.3284 1.67157 18 2.5 18H11.25V20.5H6V22H18V20.5H12.75V18H21.5C22.3284 18 23 17.3284 23 16.5V3.5C23 2.67157 22.3284 2 21.5 2H2.5ZM21.5 3.5V16.5H2.5L2.5 3.5H21.5Z" fill="#FDFDFD"/>
</svg>
