<svg width="24" height="24" viewBox="0 0 24 24" fill="none" xmlns="http://www.w3.org/2000/svg">
<path d="M13.5 15.5H10.5V20.5H13.5V15.5ZM10.5 14H13.5C14.3284 14 15 14.6716 15 15.5V20.5C15 21.3284 14.3284 22 13.5 22H10.5C9.67157 22 9 21.3284 9 20.5V15.5C9 14.6716 9.67157 14 10.5 14Z" fill="#9DCEFB"/>
<path d="M18.9991 11.0608V20.5001C18.9991 21.3285 18.3275 22.0001 17.4991 22.0001H6.49908C5.67066 22.0001 4.99908 21.3285 4.99908 20.5001V11.0607L2.52941 13.5304L1.46875 12.4698L11.1859 2.7526C11.635 2.30349 12.3632 2.3035 12.8123 2.7526L22.5294 12.4698L21.4688 13.5304L18.9991 11.0608ZM17.4991 9.56075L11.9991 4.06075L6.49908 9.56074V20.5001H17.4991V9.56075Z" fill="#FDFDFD"/>
</svg>
