<svg width="24" height="24" viewBox="0 0 24 24" fill="none" xmlns="http://www.w3.org/2000/svg">
<mask id="path-1-inside-1_3883:45236" fill="white">
<path d="M16.6343 20.0262H7.3664L2.73242 11.9999L7.3664 3.97363L16.6343 3.97363L21.2683 11.9999L16.6343 20.0262ZM22.5674 12.7499C22.8353 12.2858 22.8353 11.714 22.5674 11.2499L17.9334 3.22363C17.6654 2.75953 17.1702 2.47363 16.6343 2.47363L7.3664 2.47363C6.8305 2.47363 6.33531 2.75953 6.06736 3.22363L1.43338 11.2499C1.16543 11.714 1.16543 12.2858 1.43338 12.7499L6.06736 20.7762C6.33531 21.2403 6.8305 21.5262 7.3664 21.5262H16.6343C17.1702 21.5262 17.6654 21.2403 17.9334 20.7762L22.5674 12.7499Z"/>
</mask>
<path d="M16.6343 20.0262H7.3664L2.73242 11.9999L7.3664 3.97363L16.6343 3.97363L21.2683 11.9999L16.6343 20.0262ZM22.5674 12.7499C22.8353 12.2858 22.8353 11.714 22.5674 11.2499L17.9334 3.22363C17.6654 2.75953 17.1702 2.47363 16.6343 2.47363L7.3664 2.47363C6.8305 2.47363 6.33531 2.75953 6.06736 3.22363L1.43338 11.2499C1.16543 11.714 1.16543 12.2858 1.43338 12.7499L6.06736 20.7762C6.33531 21.2403 6.8305 21.5262 7.3664 21.5262H16.6343C17.1702 21.5262 17.6654 21.2403 17.9334 20.7762L22.5674 12.7499Z" fill="white"/>
<path d="M16.6343 20.0262V21.5262H17.5004L17.9334 20.7762L16.6343 20.0262ZM21.2683 11.9999L22.5674 12.7499L23.0004 11.9999L22.5674 11.2499L21.2683 11.9999ZM16.6343 3.97363L17.9334 3.22363L17.5004 2.47363L16.6343 2.47363V3.97363ZM7.3664 3.97363V2.47363L6.50037 2.47363L6.06736 3.22363L7.3664 3.97363ZM2.73242 11.9999L1.43338 11.2499L1.00037 11.9999L1.43338 12.7499L2.73242 11.9999ZM7.3664 20.0262L6.06736 20.7762L6.50037 21.5262H7.3664V20.0262ZM22.5674 12.7499L23.8664 13.4999L22.5674 12.7499ZM22.5674 11.2499L23.8664 10.4999L22.5674 11.2499ZM17.9334 3.22363L16.6343 3.97363V3.97363L17.9334 3.22363ZM16.6343 2.47363V0.973633V2.47363ZM7.3664 2.47363V0.973633V2.47363ZM6.06736 3.22363L7.3664 3.97363L7.3664 3.97363L6.06736 3.22363ZM1.43338 11.2499L0.134345 10.4999L0.134344 10.4999L1.43338 11.2499ZM1.43338 12.7499L0.134343 13.4999L0.134345 13.4999L1.43338 12.7499ZM6.06736 20.7762L7.3664 20.0262L7.3664 20.0262L6.06736 20.7762ZM7.3664 21.5262V23.0262V21.5262ZM16.6343 21.5262V20.0262V21.5262ZM17.9334 20.7762L16.6343 20.0262L17.9334 20.7762ZM17.9334 20.7762L22.5674 12.7499L19.9693 11.2499L15.3353 19.2762L17.9334 20.7762ZM22.5674 11.2499L17.9334 3.22363L15.3353 4.72363L19.9693 12.7499L22.5674 11.2499ZM16.6343 2.47363L7.3664 2.47363V5.47363L16.6343 5.47363V2.47363ZM6.06736 3.22363L1.43338 11.2499L4.03146 12.7499L8.66544 4.72363L6.06736 3.22363ZM1.43338 12.7499L6.06736 20.7762L8.66543 19.2762L4.03146 11.2499L1.43338 12.7499ZM7.3664 21.5262H16.6343V18.5262H7.3664V21.5262ZM23.8664 13.4999C24.4023 12.5717 24.4023 11.4281 23.8664 10.4999L21.2683 11.9999L23.8664 13.4999ZM23.8664 10.4999L19.2324 2.47363L16.6343 3.97363L21.2683 11.9999L23.8664 10.4999ZM19.2324 2.47363C18.6965 1.54543 17.7061 0.973633 16.6343 0.973633V3.97363H16.6343L19.2324 2.47363ZM16.6343 0.973633L7.3664 0.973633V3.97363L16.6343 3.97363V0.973633ZM7.3664 0.973633C6.2946 0.973633 5.30422 1.54543 4.76832 2.47363L7.3664 3.97363L7.3664 3.97363V0.973633ZM4.76832 2.47363L0.134345 10.4999L2.73242 11.9999L7.3664 3.97363L4.76832 2.47363ZM0.134344 10.4999C-0.401552 11.4281 -0.401552 12.5717 0.134343 13.4999L2.73242 11.9999V11.9999L0.134344 10.4999ZM0.134345 13.4999L4.76832 21.5262L7.3664 20.0262L2.73242 11.9999L0.134345 13.4999ZM4.76832 21.5262C5.30422 22.4544 6.2946 23.0262 7.3664 23.0262V20.0262L7.3664 20.0262L4.76832 21.5262ZM7.3664 23.0262H16.6343V20.0262H7.3664V23.0262ZM16.6343 23.0262C17.7061 23.0262 18.6965 22.4544 19.2324 21.5262L16.6343 20.0262V23.0262ZM19.2324 21.5262L23.8664 13.4999L21.2683 11.9999L16.6343 20.0262L19.2324 21.5262Z" fill="white" mask="url(#path-1-inside-1_3883:45236)"/>
<path d="M17 12C17 14.7614 14.7614 17 12 17C9.23858 17 7 14.7614 7 12C7 9.23858 9.23858 7 12 7C14.7614 7 17 9.23858 17 12ZM12 15.5C13.933 15.5 15.5 13.933 15.5 12C15.5 10.067 13.933 8.5 12 8.5C10.067 8.5 8.5 10.067 8.5 12C8.5 13.933 10.067 15.5 12 15.5Z" fill="#9DCEFB"/>
</svg>
