<svg width="24" height="24" viewBox="0 0 24 24" fill="none" xmlns="http://www.w3.org/2000/svg">
<path d="M15.3333 6.33333C15.3333 7.985 14.1321 9.35609 12.5556 9.62058V13H19.7778C20.0846 13 20.3333 13.2487 20.3333 13.5556V17.5145C21.2918 17.7611 22 18.6312 22 19.6667C22 20.894 21.0051 21.8889 19.7778 21.8889C18.5505 21.8889 17.5556 20.894 17.5556 19.6667C17.5556 18.6312 18.2638 17.7611 19.2222 17.5145V14.1111H12.5556V17.5145C13.514 17.7611 14.2222 18.6312 14.2222 19.6667C14.2222 20.894 13.2273 21.8889 12 21.8889C10.7727 21.8889 9.77778 20.894 9.77778 19.6667C9.77778 18.6312 10.486 17.7611 11.4444 17.5145V14.1111H4.77778V17.5145C5.73624 17.7611 6.44444 18.6312 6.44444 19.6667C6.44444 20.894 5.44952 21.8889 4.22222 21.8889C2.99492 21.8889 2 20.894 2 19.6667C2 18.6312 2.70821 17.7611 3.66667 17.5145V13.5556C3.66667 13.2487 3.9154 13 4.22222 13H11.4444V9.62058C9.86794 9.35609 8.66667 7.985 8.66667 6.33333C8.66667 4.49238 10.1591 3 12 3C13.841 3 15.3333 4.49238 15.3333 6.33333Z" fill="white"/>
</svg>
