<svg width="24" height="24" viewBox="0 0 24 24" fill="none" xmlns="http://www.w3.org/2000/svg">
<path d="M21.7989 16.0581C21.933 16.212 22 16.3916 22 16.5967V21.2144C22 21.4367 21.933 21.6206 21.7989 21.7659C21.6648 21.9112 21.5009 21.9839 21.3073 21.9839H17.285C17.1061 21.9839 16.9497 21.9112 16.8156 21.7659C16.6816 21.6206 16.6145 21.4367 16.6145 21.2144V16.5967C16.6145 16.46 16.6442 16.3317 16.7039 16.212C16.7636 16.0923 16.8455 15.9983 16.9497 15.9298C17.0487 15.863 17.1655 15.8272 17.285 15.8272H18.8045V12.7744C18.8056 12.6762 18.7825 12.5793 18.7373 12.4922C18.6957 12.4101 18.6343 12.3396 18.5588 12.287C18.4868 12.2365 18.4009 12.2097 18.313 12.2102H12.6145V15.8272H14.1341C14.3128 15.8272 14.4692 15.9041 14.6034 16.0581C14.7375 16.212 14.8045 16.3916 14.8045 16.5967V21.2144C14.8045 21.3512 14.7747 21.4794 14.715 21.5992C14.6556 21.7189 14.5736 21.813 14.4692 21.8814C14.3702 21.9482 14.2535 21.9838 14.1341 21.9839H10.1117C9.99229 21.9838 9.8756 21.9482 9.77657 21.8814C9.67219 21.813 9.58657 21.7189 9.51954 21.5992C9.45309 21.4819 9.4184 21.3492 9.41891 21.2144V16.5967C9.41891 16.3916 9.4861 16.212 9.62016 16.0581C9.75422 15.9041 9.91813 15.8272 10.1117 15.8272H11.6089V12.21H5.68704C5.53813 12.21 5.41516 12.2656 5.31845 12.3769C5.22157 12.488 5.17313 12.6206 5.17313 12.7744V15.8272H6.69282C6.88641 15.8272 7.04657 15.9041 7.17313 16.0581C7.2997 16.212 7.36313 16.3916 7.36313 16.5967V21.2144C7.36313 21.4367 7.29985 21.6206 7.17313 21.7659C7.04657 21.9112 6.88641 21.9839 6.69282 21.9839H2.67032C2.59595 21.9839 2.52501 21.9711 2.45814 21.9455C2.3934 21.9211 2.33304 21.8864 2.27939 21.8428C2.22274 21.795 2.17374 21.7387 2.13407 21.6761C2.08995 21.6088 2.05609 21.5354 2.0336 21.4581C2.01091 21.3789 1.9996 21.2968 2.00001 21.2144V16.5967C2.00001 16.5284 2.00751 16.46 2.02235 16.3916C2.0352 16.3285 2.05782 16.2679 2.08939 16.2119C2.11907 16.1606 2.15642 16.1094 2.2011 16.0581C2.24579 16.0067 2.29048 15.9641 2.33517 15.9298C2.37985 15.8955 2.43204 15.87 2.49157 15.8528C2.55126 15.8356 2.61079 15.8272 2.67032 15.8272H4.19001V11.62C4.19001 11.4661 4.23845 11.3336 4.33532 11.2225C4.43204 11.1112 4.54751 11.0556 4.68157 11.0556H11.6089V8.18265H10.1117C9.91797 8.18265 9.75422 8.10578 9.62016 7.95187C9.48828 7.80366 9.41656 7.6115 9.41907 7.41312V2.79516C9.41907 2.57281 9.4861 2.38469 9.62016 2.23078C9.75422 2.07687 9.91813 2 10.1117 2H14.1341C14.2533 2 14.365 2.03844 14.4692 2.11547C14.5737 2.19262 14.658 2.29381 14.715 2.41047C14.7747 2.53016 14.8045 2.65844 14.8045 2.79516V7.41281C14.8045 7.61797 14.7373 7.79765 14.6034 7.95156C14.4692 8.10547 14.3128 8.18234 14.1341 8.18234H12.6145V11.0556H19.2961C19.4452 11.0556 19.568 11.1111 19.6648 11.2223C19.7617 11.3334 19.8102 11.4661 19.8102 11.62V15.827H21.3073C21.5009 15.827 21.6648 15.9039 21.7989 16.058V16.0581Z" fill="white"/>
</svg>
