<svg width="24" height="24" viewBox="0 0 24 24" fill="none" xmlns="http://www.w3.org/2000/svg">
<path d="M13.1111 3.66667C13.1111 2.74619 13.8573 2 14.7778 2H20.3333C21.2538 2 22 2.74619 22 3.66667V9.22222C22 10.1427 21.2538 10.8889 20.3333 10.8889H14.7778C13.8573 10.8889 13.1111 10.1427 13.1111 9.22222V3.66667Z" fill="white"/>
<path d="M14.7778 13.1111C13.8573 13.1111 13.1111 13.8573 13.1111 14.7778V20.3333C13.1111 21.2538 13.8573 22 14.7778 22H20.3333C21.2538 22 22 21.2538 22 20.3333V14.7778C22 13.8573 21.2538 13.1111 20.3333 13.1111H14.7778Z" fill="white"/>
<path d="M2 14.7778C2 13.8573 2.74619 13.1111 3.66667 13.1111H9.22222C10.1427 13.1111 10.8889 13.8573 10.8889 14.7778V20.3333C10.8889 21.2538 10.1427 22 9.22222 22H3.66667C2.74619 22 2 21.2538 2 20.3333V14.7778Z" fill="white"/>
<path d="M2.27778 2V10.8889H3.94444V7.90073L5.54794 6.29723L8.83107 10.8889H10.88L6.74261 5.10256L9.84517 2H7.48815L3.94444 5.54371V2H2.27778Z" fill="white"/>
</svg>
