<svg width="24" height="24" viewBox="0 0 24 24" fill="none" xmlns="http://www.w3.org/2000/svg">
<path d="M0 7.80892C0 6.80988 0.809881 6 1.80892 6H10.2505C11.2496 6 12.0595 6.80988 12.0595 7.80892V16.2505C12.0595 17.2496 11.2496 18.0595 10.2505 18.0595H1.80892C0.80988 18.0595 0 17.2496 0 16.2505V7.80892ZM10.6953 8.7592H9.25782L8.37989 12.5218C8.34773 12.6697 8.30593 12.8562 8.25447 13.0813C8.20945 13.3064 8.16765 13.5315 8.12906 13.7566C8.09047 13.9753 8.06152 14.1651 8.04223 14.3259C8.02293 14.1715 7.99399 13.9818 7.9554 13.7566C7.91681 13.5315 7.875 13.3129 7.82998 13.1006C7.79139 12.8884 7.75602 12.7276 7.72386 12.6182L6.72051 8.7592H5.34091L4.33756 12.6182C4.3054 12.734 4.26681 12.898 4.22179 13.1103C4.1832 13.3161 4.14461 13.5315 4.10602 13.7566C4.06743 13.9753 4.03849 14.1651 4.01919 14.3259C3.9999 14.1715 3.97095 13.9818 3.93236 13.7566C3.89377 13.5315 3.85197 13.3064 3.80695 13.0813C3.76192 12.8562 3.72012 12.6697 3.68153 12.5218L2.8036 8.7592H1.36611L3.12197 15.6476H4.78135L5.70752 12.0394C5.72681 11.9622 5.75254 11.8529 5.7847 11.7114C5.81686 11.5634 5.84901 11.4091 5.88117 11.2483C5.91333 11.0811 5.94227 10.9235 5.968 10.7755C6.00016 10.6212 6.01945 10.5022 6.02589 10.4186C6.03875 10.5022 6.05804 10.6212 6.08377 10.7755C6.1095 10.9235 6.13844 11.0811 6.1706 11.2483C6.20919 11.4155 6.24135 11.5699 6.26708 11.7114C6.29923 11.8529 6.32496 11.959 6.34426 12.0297L7.28007 15.6476H8.93945L10.6953 8.7592Z" fill="white"/>
<path d="M13.2654 12.9342H21.223L19.7485 15.1459L21.2536 16.1493L24 12.0297L21.2536 7.9102L19.7485 8.91361L21.223 11.1253H13.2654V12.9342Z" fill="white"/>
</svg>
