<svg width="24" height="24" viewBox="0 0 24 24" fill="none" xmlns="http://www.w3.org/2000/svg">
<path d="M12 8.82222C14.8634 8.82222 17.5061 8.42677 19.4738 7.75339C20.4541 7.41791 21.3232 6.99434 21.9662 6.47408L22 6.44646V9.31111C22 11.2012 17.5228 12.7333 12 12.7333C6.47715 12.7333 2 11.2012 2 9.31111V6.44646L2.03381 6.47408C2.67682 6.99434 3.54592 7.41791 4.52621 7.75339C6.49386 8.42677 9.13662 8.82222 12 8.82222Z" fill="white"/>
<path d="M2 11.3353V14.6889C2 16.5789 6.47715 18.1111 12 18.1111C17.5228 18.1111 22 16.5789 22 14.6889V11.3353C21.9888 11.3446 21.9775 11.3538 21.9662 11.363C21.3232 11.8832 20.4541 12.3068 19.4738 12.6423C17.5061 13.3157 14.8634 13.7111 12 13.7111C9.13662 13.7111 6.49387 13.3157 4.52621 12.6423C3.54592 12.3068 2.67682 11.8832 2.03381 11.363C2.0225 11.3538 2.01123 11.3446 2 11.3353Z" fill="white"/>
<path d="M21.9662 16.7408L22 16.7131V19.5778C22 21.4678 17.5228 23 12 23C6.47715 23 2 21.4678 2 19.5778V16.7131L2.03381 16.7408C2.67682 17.261 3.54592 17.6846 4.52621 18.0201C6.49387 18.6934 9.13662 19.0889 12 19.0889C14.8634 19.0889 17.5061 18.6934 19.4738 18.0201C20.4541 17.6846 21.3232 17.261 21.9662 16.7408Z" fill="white"/>
<path d="M22 4.42222C22 6.31226 17.5228 7.84444 12 7.84444C6.47715 7.84444 2 6.31226 2 4.42222C2 2.53218 6.47715 1 12 1C17.5228 1 22 2.53218 22 4.42222Z" fill="white"/>
</svg>
