<svg width="24" height="24" viewBox="0 0 24 24" fill="none" xmlns="http://www.w3.org/2000/svg">
<path d="M7.2 17.6C8.24627 17.6 9.22304 17.3024 10.0503 16.7873C10.4441 17.2632 10.8978 17.6875 11.4 18.0487C10.2179 18.8991 8.76742 19.4 7.2 19.4C3.22355 19.4 0 16.1764 0 12.2C0 8.22355 3.22355 5 7.2 5C8.76742 5 10.2179 5.50086 11.4 6.35126C10.8978 6.71251 10.4441 7.13685 10.0503 7.61266C9.22304 7.09756 8.24627 6.8 7.2 6.8C4.21766 6.8 1.8 9.21766 1.8 12.2C1.8 15.1823 4.21766 17.6 7.2 17.6Z" fill="white"/>
<path d="M24 12.2C24 14.4737 22.946 16.5013 21.3 17.8208V6.57916C22.946 7.89867 24 9.92625 24 12.2Z" fill="white"/>
<path d="M17.7 5.0557C18.3288 5.13411 18.9324 5.29359 19.5 5.52336V18.8766C18.9324 19.1064 18.3288 19.2659 17.7 19.3443V5.0557Z" fill="white"/>
<path d="M15.9 19.3443V5.0557C12.3483 5.49859 9.6 8.52834 9.6 12.2C9.6 13.7688 10.1018 15.2205 10.9536 16.4032C10.9074 16.3391 10.8623 16.2743 10.8182 16.2086C11.9124 15.2204 12.6 13.7905 12.6 12.2C12.6 10.6095 11.9124 9.17963 10.8182 8.1914C11.1545 7.69059 11.552 7.23434 12 6.83336C13.473 8.15173 14.4 10.0676 14.4 12.2C14.4 14.3324 13.473 16.2483 12 17.5667C13.0633 18.5183 14.4111 19.1586 15.9 19.3443Z" fill="white"/>
</svg>
