<svg width="25" height="25" viewBox="0 0 25 25" fill="none" xmlns="http://www.w3.org/2000/svg">
<path d="M9.37846 14.6787L15.3728 8.32325L13.6269 6.67651L9.24628 11.321L6.80541 9.11043L5.19434 10.8893L9.37846 14.6787Z" fill="white"/>
<path d="M16.7883 18.9096C15.0354 20.2224 12.8585 21 10.5 21C4.70101 21 0 16.299 0 10.5C0 4.70101 4.70101 0 10.5 0C16.299 0 21 4.70101 21 10.5C21 12.8585 20.2224 15.0354 18.9096 16.7883L24.0608 21.9395L21.9395 24.0608L16.7883 18.9096ZM18 10.5C18 6.35786 14.6421 3 10.5 3C6.35786 3 3 6.35786 3 10.5C3 14.6421 6.35786 18 10.5 18C14.6421 18 18 14.6421 18 10.5Z" fill="white"/>
</svg>
