<svg width="24" height="24" viewBox="0 0 24 24" fill="none" xmlns="http://www.w3.org/2000/svg">
<path d="M21.6243 9.51317C21.28 8.13575 20.6226 7.10269 19.2452 7.10269H17.4608V9.23143C17.4608 10.8906 16.0521 12.268 14.4868 12.268H9.69719C8.38238 12.268 7.31802 13.395 7.31802 14.7098V19.249C7.31802 20.5325 8.44499 21.3151 9.69719 21.6908C11.1998 22.129 12.6711 22.2229 14.4868 21.6908C15.6764 21.3464 16.866 20.6264 16.866 19.249V17.4333H12.0764V16.8385H19.2452C20.6226 16.8385 21.1548 15.8681 21.6243 14.428C22.1252 12.8628 22.1252 11.4228 21.6243 9.51317V9.51317ZM14.7686 18.5916C15.2695 18.5916 15.6764 18.9985 15.6764 19.4994C15.6764 20.0003 15.2695 20.4073 14.7686 20.4073C14.2677 20.4386 13.8607 20.0003 13.8607 19.4994C13.8607 18.9985 14.2677 18.5916 14.7686 18.5916ZM9.47805 11.6419H14.2677C15.5825 11.6419 16.6469 10.5462 16.6469 9.20012V4.66091C16.6469 3.37741 15.5512 2.40696 14.2677 2.18783C12.6711 1.93739 10.9181 1.93739 9.47805 2.18783C7.44324 2.53218 7.09888 3.2835 7.09888 4.66091V6.4766H11.8885V7.07139H5.3145C3.93709 7.07139 2.7162 7.91662 2.34054 9.48186C1.90227 11.2975 1.87097 12.4245 2.34054 14.3341C2.6849 15.7428 3.49882 16.7446 4.87624 16.7446H6.50409V14.5533C6.47278 13.0193 7.8502 11.6419 9.47805 11.6419V11.6419ZM9.165 5.25571C8.66413 5.25571 8.25716 4.84874 8.25716 4.34787C8.25716 3.84699 8.66413 3.44002 9.165 3.44002C9.66588 3.44002 10.0728 3.84699 10.0728 4.34787C10.0728 4.84874 9.66588 5.25571 9.165 5.25571Z" fill="white"/>
</svg>
