<svg width="24" height="24" viewBox="0 0 24 24" fill="none" xmlns="http://www.w3.org/2000/svg">
<path d="M0 7.80892C0 6.80988 0.80988 6 1.80892 6H10.2505C11.2496 6 12.0595 6.80988 12.0595 7.80892V16.2505C12.0595 17.2496 11.2496 18.0595 10.2505 18.0595H1.80892C0.80988 18.0595 0 17.2496 0 16.2505V7.80892ZM5.26098 15.6476H6.60199L8.37714 10.2546H8.41573L8.38679 10.8335C8.38035 11.0843 8.37071 11.3512 8.35784 11.6342C8.35141 11.9172 8.3482 12.168 8.3482 12.3867V15.6476H9.7085V8.75923H7.7211L5.99419 14.0268H5.96525L4.33481 8.75923H2.34741V15.6476H3.64983V12.4446C3.64983 12.2066 3.6434 11.9429 3.63054 11.6535C3.61767 11.3576 3.60481 11.0811 3.59195 10.8238L3.56301 10.245H3.6016L5.26098 15.6476Z" fill="white"/>
<path d="M13.2654 12.9342H21.223L19.7485 15.1459L21.2536 16.1493L24 12.0297L21.2536 7.9102L19.7485 8.91361L21.223 11.1253H13.2654V12.9342Z" fill="white"/>
</svg>
