<svg width="24" height="24" viewBox="0 0 24 24" fill="none" xmlns="http://www.w3.org/2000/svg">
<path d="M15.9024 13.585C15.7857 13.753 15.5827 13.837 15.2934 13.837C15.0554 13.837 14.871 13.7437 14.7404 13.557C14.6097 13.3657 14.5444 13.0833 14.5444 12.71C14.5444 12.3367 14.6097 12.052 14.7404 11.856C14.871 11.6553 15.0507 11.555 15.2794 11.555C15.5874 11.555 15.7974 11.653 15.9094 11.849C16.026 12.045 16.0844 12.3297 16.0844 12.703V12.815C16.0797 13.1557 16.019 13.4123 15.9024 13.585Z" fill="white"/>
<path d="M1.5 4C0.671573 4 0 4.67157 0 5.5V19.3C0 20.1284 0.671573 20.8 1.5 20.8H22.5C23.3284 20.8 24 20.1284 24 19.3V5.5C24 4.67157 23.3284 4 22.5 4H1.5ZM5.18892 14.6V10.484H3.83092V9.602H7.60392V10.484H6.24592V14.6H5.18892ZM9.50163 11.562V14.6H8.45863V11.562H7.88463V11.058L8.45863 10.778V10.498C8.45863 10.1713 8.5123 9.91933 8.61963 9.742C8.73163 9.56 8.88796 9.43167 9.08863 9.357C9.29396 9.28233 9.5343 9.245 9.80963 9.245C10.015 9.245 10.1993 9.26133 10.3626 9.294C10.5306 9.32667 10.666 9.364 10.7686 9.406L10.7003 9.602H12.9507V10.204L12.3417 10.484V13.718L12.9507 13.998V14.6H10.6757V13.998L11.2847 13.718V10.484L10.6757 10.204V9.67267L10.5026 10.169C10.4233 10.1457 10.337 10.1247 10.2436 10.106C10.1503 10.0827 10.043 10.071 9.92163 10.071C9.77696 10.071 9.66963 10.1153 9.59963 10.204C9.5343 10.2927 9.50163 10.4047 9.50163 10.54V10.778H10.4046V11.562H9.50163ZM13.8864 14.173C13.6204 13.837 13.4874 13.3447 13.4874 12.696C13.4874 12.0427 13.6227 11.548 13.8934 11.212C14.164 10.876 14.5187 10.708 14.9574 10.708C15.2327 10.708 15.459 10.7617 15.6364 10.869C15.8137 10.9763 15.9537 11.1093 16.0564 11.268H16.0914C16.0774 11.1933 16.061 11.086 16.0424 10.946C16.0237 10.8013 16.0144 10.6543 16.0144 10.505V9.28H17.0574V14.6H16.2594L16.0564 14.103H16.0144C15.9117 14.2617 15.774 14.397 15.6014 14.509C15.4287 14.6163 15.2047 14.67 14.9294 14.67C14.5047 14.67 14.157 14.5043 13.8864 14.173ZM19.3591 11.562V14.6H18.316V11.562H17.7421V11.058L18.316 10.778V10.498C18.316 10.1713 18.3697 9.91933 18.4771 9.742C18.5891 9.56 18.7454 9.43167 18.9461 9.357C19.1514 9.28233 19.3917 9.245 19.667 9.245C19.8724 9.245 20.0567 9.26133 20.2201 9.294C20.3881 9.32667 20.5234 9.364 20.6261 9.406L20.3601 10.169C20.2807 10.1457 20.1944 10.1247 20.101 10.106C20.0077 10.0827 19.9004 10.071 19.7791 10.071C19.6344 10.071 19.5271 10.1153 19.4571 10.204C19.3917 10.2927 19.3591 10.4047 19.3591 10.54V10.778H20.2621V11.562H19.3591Z" fill="white"/>
</svg>
