<svg width="24" height="24" viewBox="0 0 24 24" fill="none" xmlns="http://www.w3.org/2000/svg">
<path d="M20.5 12C20.5 13.6224 20.0454 15.1387 19.2567 16.4284L20.3432 17.5148C21.3902 15.9339 22 14.0382 22 12C22 6.47715 17.5228 2 12 2C6.47715 2 2 6.47715 2 12C2 17.5228 6.47715 22 12 22C14.0381 22 15.9339 21.3903 17.5147 20.3432L16.4283 19.2568C15.1386 20.0455 13.6224 20.5 12 20.5C7.30558 20.5 3.5 16.6944 3.5 12C3.5 7.30558 7.30558 3.5 12 3.5C16.6944 3.5 20.5 7.30558 20.5 12Z" fill="white"/>
<path d="M19 12C19 13.2055 18.6953 14.3399 18.1586 15.3302L17.0381 14.2097C17.3351 13.5335 17.5 12.786 17.5 12C17.5 8.96243 15.0376 6.5 12 6.5C8.96243 6.5 6.5 8.96243 6.5 12C6.5 15.0376 8.96243 17.5 12 17.5C12.7859 17.5 13.5334 17.3351 14.2096 17.0381L15.3302 18.1586C14.3398 18.6953 13.2055 19 12 19C8.13401 19 5 15.866 5 12C5 8.13401 8.13401 5 12 5C15.866 5 19 8.13401 19 12Z" fill="white"/>
<path d="M11.25 11.25H16V12.75H13.8107L21.5303 20.4697L20.4697 21.5303L12.75 13.8107V16H11.25V11.25Z" fill="white"/>
</svg>
