<svg width="24" height="24" viewBox="0 0 24 24" fill="none" xmlns="http://www.w3.org/2000/svg">
<path d="M22 5.33333C22 7.17428 20.5076 8.66667 18.6667 8.66667C16.8257 8.66667 15.3333 7.17428 15.3333 5.33333C15.3333 3.49238 16.8257 2 18.6667 2C20.5076 2 22 3.49238 22 5.33333Z" fill="white"/>
<path d="M2 17C2 16.0795 2.74619 15.3333 3.66667 15.3333H7C7.92048 15.3333 8.66667 16.0795 8.66667 17V20.3333C8.66667 21.2538 7.92048 22 7 22H3.66667C2.74619 22 2 21.2538 2 20.3333V17Z" fill="white"/>
<path d="M6.16667 6.44444C6.16667 5.06373 7.28596 3.94444 8.66667 3.94444C10.0474 3.94444 11.1667 5.06373 11.1667 6.44444V17.5556C11.1667 19.8567 13.0321 21.7222 15.3333 21.7222C17.6345 21.7222 19.5 19.8567 19.5 17.5556V12H17.8333V17.5556C17.8333 18.9363 16.714 20.0556 15.3333 20.0556C13.9526 20.0556 12.8333 18.9363 12.8333 17.5556V6.44444C12.8333 4.14326 10.9679 2.27778 8.66667 2.27778C6.36548 2.27778 4.5 4.14326 4.5 6.44444V12H6.16667V6.44444Z" fill="white"/>
</svg>
