<svg width="24" height="24" viewBox="0 0 24 24" fill="none" xmlns="http://www.w3.org/2000/svg">
<path d="M0.423728 6.16572C0.251098 6.04017 0.141243 5.93816 0.0941618 5.8597C0.0470809 5.78123 0.0235404 5.67137 0.0235404 5.53013V5.31826C0.0235404 4.91023 0.125549 4.58851 0.329566 4.35311C0.533583 4.1177 0.88669 4 1.38889 4L20.7862 4.02354C21.3041 4.02354 21.6651 4.1334 21.8691 4.35311C22.0731 4.57282 22.1751 4.87884 22.1751 5.27118L22.1986 5.53013C22.1986 5.67137 22.1829 5.76946 22.1516 5.82438C22.1202 5.87931 21.9946 5.99309 21.7749 6.16572L12.1469 11.9567C11.9899 12.0194 11.7977 12.1058 11.5701 12.2156C11.3426 12.3255 11.1896 12.3882 11.1111 12.4039C11.0169 12.4039 10.8757 12.3608 10.6874 12.2745C10.499 12.1882 10.2872 12.0744 10.0518 11.9331L0.423728 6.16572ZM14.9011 15.6996C14.5715 15.6996 14.3047 15.7702 14.1007 15.9115C13.8967 16.0527 13.7359 16.2332 13.6181 16.4529C13.5004 16.6726 13.422 16.9198 13.3827 17.1944C13.3435 17.4691 13.3239 17.7319 13.3239 17.983V19.6309V19.9133C13.3239 20.0075 13.3317 20.0938 13.3474 20.1723H10.0989C8.9846 20.1723 7.94098 20.1684 6.96797 20.1605C5.99497 20.1527 5.13966 20.1487 4.40206 20.1487H2.77777C2.2128 20.1487 1.74984 20.0742 1.38889 19.9251C1.02793 19.776 0.745447 19.5838 0.54143 19.3484C0.337413 19.113 0.19617 18.8423 0.117702 18.5362C0.0392341 18.2302 0 17.9124 0 17.5828V8.87287C0 8.54331 0.0784682 8.33537 0.235404 8.24905C0.392341 8.16274 0.588511 8.20589 0.823916 8.37852C0.902384 8.4256 1.04363 8.51584 1.24764 8.64924C1.45166 8.78263 1.69491 8.93565 1.9774 9.10828C2.25988 9.28091 2.55414 9.46531 2.86016 9.66148C3.16619 9.85765 3.45652 10.042 3.73116 10.2147C4.0058 10.3873 4.2412 10.5364 4.43737 10.6619C4.63354 10.7875 4.76302 10.866 4.82579 10.8974C5.0455 11.0386 5.17105 11.2151 5.20244 11.427C5.23383 11.6389 5.21029 11.8233 5.13182 11.9802C5.06904 12.1371 4.97488 12.3412 4.84933 12.5923C4.72378 12.8434 4.59039 13.0984 4.44914 13.3573C4.3079 13.6163 4.17058 13.8634 4.03719 14.0989C3.90379 14.3343 3.81355 14.5147 3.76647 14.6403C3.688 14.86 3.7037 15.0091 3.81355 15.0875C3.92341 15.166 4.09604 15.1346 4.33144 14.9934C4.37852 14.962 4.508 14.8404 4.71986 14.6285C4.93172 14.4166 5.15536 14.1812 5.39076 13.9223C5.62617 13.6634 5.8498 13.4201 6.06166 13.1925C6.27353 12.965 6.4187 12.8277 6.49716 12.7806C6.63841 12.655 6.82281 12.5648 7.05036 12.5099C7.27792 12.4549 7.47802 12.4746 7.65065 12.5687C7.7605 12.6315 7.90959 12.7257 8.09791 12.8512C8.28624 12.9768 8.49418 13.1141 8.72174 13.2632C8.94929 13.4123 9.18077 13.5653 9.41618 13.7222L10.0518 14.1459C10.2401 14.2715 10.4402 14.3499 10.6521 14.3813C10.8639 14.4127 11.0679 14.4206 11.2641 14.4049C11.4603 14.3892 11.6368 14.3539 11.7938 14.2989C11.9507 14.244 12.0684 14.193 12.1469 14.1459C12.2253 14.0989 12.3744 14.0086 12.5941 13.8752C12.8138 13.7418 13.0532 13.5967 13.3121 13.4397C13.5711 13.2828 13.8143 13.1337 14.0419 12.9925C14.2694 12.8512 14.4381 12.7492 14.548 12.6864L17.5141 10.8503C17.5455 10.8346 17.6436 10.7718 17.8083 10.6619C17.9731 10.5521 18.1771 10.4187 18.4204 10.2618C18.6637 10.1048 18.9304 9.93219 19.2208 9.74387C19.5111 9.55554 19.7857 9.37899 20.0447 9.21421C20.3036 9.04943 20.543 8.89641 20.7627 8.75517C20.9824 8.61393 21.1393 8.51192 21.2335 8.44914C21.5317 8.26082 21.7631 8.18628 21.9279 8.22551C22.0927 8.26474 22.1751 8.39422 22.1751 8.61393V14.7344C21.7357 14.3735 21.308 14.0361 20.8921 13.7222C20.4763 13.4083 20.0957 13.1415 19.7504 12.9218C19.4052 12.6864 19.1031 12.604 18.8441 12.6747C18.5852 12.7453 18.3733 12.8983 18.2085 13.1337C18.0438 13.3691 17.9182 13.6437 17.8319 13.9576C17.7456 14.2715 17.7024 14.554 17.7024 14.8051C17.7024 14.9777 17.6985 15.1189 17.6906 15.2288C17.6828 15.3386 17.6789 15.4328 17.6789 15.5113C17.6632 15.5897 17.6553 15.6525 17.6553 15.6996H17.3022H14.9011V15.6996ZM23.6817 18.1713C23.8857 18.3283 23.9916 18.548 23.9995 18.8305C24.0073 19.113 23.9249 19.317 23.7523 19.4425C23.5169 19.6309 23.2423 19.8545 22.9284 20.1134C22.6145 20.3724 22.2889 20.6352 21.9515 20.902C21.6141 21.1688 21.2845 21.4356 20.9628 21.7024C20.641 21.9692 20.3468 22.2046 20.08 22.4086C19.7504 22.6754 19.519 22.8167 19.3856 22.8324C19.2522 22.8481 19.1855 22.644 19.1855 22.2203V21.161C19.1855 20.8942 19.1188 20.6745 18.9854 20.5019C18.852 20.3292 18.6754 20.2429 18.4557 20.2429H15.725C15.5053 20.2429 15.2895 20.1644 15.0777 20.0075C14.8658 19.8506 14.7599 19.6466 14.7599 19.3955V18.1949C14.7599 17.7555 14.8305 17.4887 14.9717 17.3945C15.113 17.3004 15.3641 17.2533 15.725 17.2533H16.1958C16.3371 17.2533 16.4979 17.2572 16.6784 17.265C16.8589 17.2729 17.0747 17.2768 17.3258 17.2768H18.3145C18.6283 17.2768 18.852 17.2219 18.9854 17.112C19.1188 17.0022 19.1855 16.806 19.1855 16.5235V15.4877C19.1855 15.2053 19.2325 15.0248 19.3267 14.9463C19.4209 14.8678 19.5935 14.9306 19.8446 15.1346C20.0957 15.323 20.386 15.5505 20.7156 15.8173C21.0452 16.0841 21.3865 16.3548 21.7396 16.6294C22.0927 16.9041 22.438 17.1787 22.7754 17.4534C23.1128 17.728 23.4149 17.9673 23.6817 18.1713V18.1713Z" fill="white"/>
</svg>
