<svg width="24" height="24" viewBox="0 0 24 24" fill="none" xmlns="http://www.w3.org/2000/svg">
<g clip-path="url(#clip0_3785:83774)">
<path d="M13.698 6.17576C13.2012 6.47193 12.6205 6.64207 12 6.64207C10.1659 6.64207 8.67898 5.15519 8.67898 3.32103C8.67898 1.48688 10.1659 0 12 0C13.8342 0 15.321 1.48688 15.321 3.32103C15.321 3.95685 15.1424 4.55094 14.8325 5.05583L18.9442 9.16754C19.4491 8.85766 20.0432 8.67898 20.679 8.67898C22.5131 8.67898 24 10.1659 24 12C24 13.8342 22.5131 15.321 20.679 15.321C20.0644 15.321 19.4887 15.1541 18.995 14.863L14.9083 19.0742C15.1713 19.5499 15.321 20.0969 15.321 20.679C15.321 22.5131 13.8342 24 12 24C10.1659 24 8.67898 22.5131 8.67898 20.679C8.67898 18.8448 10.1659 17.358 12 17.358C12.6735 17.358 13.3001 17.5584 13.8236 17.9029L17.8551 13.7487C17.6775 13.4624 17.5422 13.1472 17.4579 12.8118H15.2211C14.8589 14.2535 13.5541 15.321 12 15.321C10.4459 15.321 9.1411 14.2535 8.7789 12.8118H6.54214C6.17994 14.2535 4.87515 15.321 3.32103 15.321C1.48688 15.321 0 13.8342 0 12C0 10.1659 1.48688 8.67898 3.32103 8.67898C4.88571 8.67898 6.19766 9.76104 6.54939 11.2177H8.77165C9.12338 9.76104 10.4353 8.67898 12 8.67898C13.5647 8.67898 14.8766 9.76104 15.2284 11.2177H17.4506C17.5295 10.891 17.6567 10.5831 17.8243 10.302L13.698 6.17576ZM10.4059 3.32103C10.4059 4.20143 11.1196 4.91513 12 4.91513C12.8804 4.91513 13.5941 4.20143 13.5941 3.32103C13.5941 2.44064 12.8804 1.72694 12 1.72694C11.1196 1.72694 10.4059 2.44064 10.4059 3.32103ZM3.32103 13.5941C4.20143 13.5941 4.91513 12.8804 4.91513 12C4.91513 11.1196 4.20143 10.4059 3.32103 10.4059C2.44064 10.4059 1.72694 11.1196 1.72694 12C1.72694 12.8804 2.44064 13.5941 3.32103 13.5941ZM12 13.5941C12.8804 13.5941 13.5941 12.8804 13.5941 12C13.5941 11.1196 12.8804 10.4059 12 10.4059C11.1196 10.4059 10.4059 11.1196 10.4059 12C10.4059 12.8804 11.1196 13.5941 12 13.5941ZM19.0849 12C19.0849 12.8804 19.7986 13.5941 20.679 13.5941C21.5594 13.5941 22.2731 12.8804 22.2731 12C22.2731 11.1196 21.5594 10.4059 20.679 10.4059C19.7986 10.4059 19.0849 11.1196 19.0849 12ZM10.4059 20.679C10.4059 21.5594 11.1196 22.2731 12 22.2731C12.8804 22.2731 13.5941 21.5594 13.5941 20.679C13.5941 19.7986 12.8804 19.0849 12 19.0849C11.1196 19.0849 10.4059 19.7986 10.4059 20.679Z" fill="white"/>
</g>
<defs>
<clipPath id="clip0_3785:83774">
<rect width="24" height="24" fill="white"/>
</clipPath>
</defs>
</svg>
