<svg width="24" height="24" viewBox="0 0 24 24" fill="none" xmlns="http://www.w3.org/2000/svg">
<path d="M3.66667 2C2.74619 2 2 2.74619 2 3.66667V9.22222C2 10.1427 2.74619 10.8889 3.66667 10.8889H9.22222C10.1427 10.8889 10.8889 10.1427 10.8889 9.22222V3.66667C10.8889 2.74619 10.1427 2 9.22222 2H3.66667Z" fill="white"/>
<path d="M3.66667 13.1111C2.74619 13.1111 2 13.8573 2 14.7778V20.3333C2 21.2538 2.74619 22 3.66667 22H9.22222C10.1427 22 10.8889 21.2538 10.8889 20.3333V14.7778C10.8889 13.8573 10.1427 13.1111 9.22222 13.1111H3.66667Z" fill="white"/>
<path d="M13.1111 14.7778C13.1111 13.8573 13.8573 13.1111 14.7778 13.1111H20.3333C21.2538 13.1111 22 13.8573 22 14.7778V20.3333C22 21.2538 21.2538 22 20.3333 22H14.7778C13.8573 22 13.1111 21.2538 13.1111 20.3333V14.7778Z" fill="white"/>
<path d="M14.7778 4.22222C13.8573 4.22222 13.1111 4.96841 13.1111 5.88889V9.22222C13.1111 10.1427 13.8573 10.8889 14.7778 10.8889H18.1111C19.0316 10.8889 19.7778 10.1427 19.7778 9.22222V5.88889C19.7778 4.96841 19.0316 4.22222 18.1111 4.22222H14.7778Z" fill="white"/>
</svg>
