<svg width="24" height="24" viewBox="0 0 24 24" fill="none" xmlns="http://www.w3.org/2000/svg">
<path d="M1.8 4C0.805888 4 0 4.80589 0 5.8V19C0 19.9941 0.805887 20.8 1.8 20.8H22.2C23.1941 20.8 24 19.9941 24 19V5.8C24 4.80589 23.1941 4 22.2 4H1.8ZM8.77053 15.0088C8.59133 15.3392 8.31693 15.6024 7.94733 15.7984C7.58333 15.9888 7.12133 16.084 6.56133 16.084C5.76613 16.084 5.16133 15.8824 4.74693 15.4792C4.33253 15.0704 4.12533 14.5328 4.12533 13.8664V10.0024H5.39373V13.6732C5.39373 14.166 5.49453 14.5132 5.69613 14.7148C5.89773 14.9164 6.19733 15.0172 6.59493 15.0172C7.00933 15.0172 7.30893 14.908 7.49373 14.6896C7.68413 14.4712 7.77933 14.1296 7.77933 13.6648V10.0024H9.04773V13.8832C9.04773 14.2976 8.95533 14.6728 8.77053 15.0088ZM14.6241 15.2356C14.0529 15.7452 13.2493 16 12.2133 16H10.5165V10.0024H12.3981C13.0253 10.0024 13.5685 10.1144 14.0277 10.3384C14.4925 10.5624 14.8509 10.8928 15.1029 11.3296C15.3605 11.7608 15.4893 12.2984 15.4893 12.9424C15.4893 13.956 15.2009 14.7204 14.6241 15.2356ZM13.7337 11.5144C13.4425 11.2008 13.0197 11.044 12.4653 11.044H11.7849V14.95H12.3309C13.5573 14.95 14.1705 14.292 14.1705 12.976C14.1705 12.3096 14.0249 11.8224 13.7337 11.5144ZM16.7345 16V10.0024H20.1701V11.044H17.9861V12.5896H20.0189V13.6312H17.9861V16H16.7345Z" fill="white"/>
</svg>
