<svg width="24" height="24" viewBox="0 0 24 24" fill="none" xmlns="http://www.w3.org/2000/svg">
<path d="M20.4159 9.17949C20.0358 6.00188 17.3312 3.53846 14.0513 3.53846V2C18.4412 2 22 5.55876 22 9.94872V10.7179H19.1795V9.17949H20.4159Z" fill="white"/>
<path d="M4.30769 2.76923C3.45802 2.76923 2.76923 3.45802 2.76923 4.30769V9.4359C2.76923 10.2856 3.45802 10.9744 4.30769 10.9744H9.4359C10.2856 10.9744 10.9744 10.2856 10.9744 9.4359V4.30769C10.9744 3.45802 10.2856 2.76923 9.4359 2.76923H4.30769Z" fill="white"/>
<path d="M14.5641 13.0256C13.7144 13.0256 13.0256 13.7144 13.0256 14.5641V19.6923C13.0256 20.542 13.7144 21.2308 14.5641 21.2308H19.6923C20.542 21.2308 21.2308 20.542 21.2308 19.6923V14.5641C21.2308 13.7144 20.542 13.0256 19.6923 13.0256H14.5641Z" fill="white"/>
<path d="M9.94872 20.4615C6.66876 20.4615 3.96416 17.9981 3.58414 14.8205H4.82051V13.2821H2V14.0513C2 18.4412 5.55876 22 9.94872 22V20.4615Z" fill="white"/>
</svg>
