<svg width="24" height="24" viewBox="0 0 24 24" fill="none" xmlns="http://www.w3.org/2000/svg">
<path d="M1.8 4C0.805888 4 0 4.80589 0 5.8V19C0 19.9941 0.805887 20.8 1.8 20.8H22.2C23.1941 20.8 24 19.9941 24 19V5.8C24 4.80589 23.1941 4 22.2 4H1.8ZM7.85534 7.42811L3.50512 12.4L7.85534 17.3719L6.44978 18.4L1.2 12.4L6.44978 6.4L7.85534 7.42811ZM16.0498 7.42811L17.4553 6.4L22.7051 12.4L17.4553 18.4L16.0498 17.3719L20.4 12.4L16.0498 7.42811ZM8.71692 17.5803L13.5169 6.6084L15.1882 7.21963L10.3882 18.1915L8.71692 17.5803Z" fill="white"/>
</svg>
