<svg width="24" height="24" viewBox="0 0 24 24" fill="none" xmlns="http://www.w3.org/2000/svg">
<path d="M21.4839 12.0002C21.4838 12.0872 21.4621 12.1728 21.4207 12.2494C21.3792 12.326 21.3194 12.3912 21.2464 12.4391L6.8202 21.9128C6.74048 21.9651 6.64802 21.9951 6.5526 21.9994C6.45719 22.0038 6.36236 21.9824 6.27816 21.9375C6.19407 21.8924 6.12382 21.8255 6.07485 21.7439C6.02587 21.6622 6.00001 21.5689 6 21.4738V2.5265C5.99987 2.43139 6.02567 2.33802 6.07464 2.25635C6.12361 2.17467 6.19393 2.10775 6.2781 2.0627C6.36227 2.01766 6.45714 1.99618 6.5526 2.00056C6.64807 2.00493 6.74055 2.035 6.8202 2.08756L21.2464 11.5612C21.3194 11.6092 21.3792 11.6743 21.4207 11.7509C21.4621 11.8275 21.4838 11.9132 21.4839 12.0002Z" fill="white"/>
</svg>
