<svg width="24" height="24" viewBox="0 0 24 24" fill="none" xmlns="http://www.w3.org/2000/svg">
<path d="M0 3V20.3494C0 20.8285 0.38838 21.2169 0.86747 21.2169H24V19.4819H1.73494V3H0Z" fill="white"/>
<path d="M3.18072 3H24V10.5246C23.6023 11.3973 22.9363 12.5526 22.1173 13.5974C21.5612 14.3067 20.9622 14.9291 20.3657 15.3669C19.7609 15.8108 19.2315 16.012 18.7952 16.012C17.5646 16.012 16.4877 14.962 15.6354 13.5416C15.2326 12.8703 14.9268 12.1921 14.7211 11.6778C14.6188 11.422 14.5424 11.2099 14.4923 11.0635C14.4672 10.9904 14.4487 10.934 14.4369 10.8969L14.4256 10.8611L14.4252 10.8597L14.4082 10.7949C14.3934 10.7395 14.3717 10.66 14.3431 10.5599C14.286 10.3598 14.201 10.0766 14.088 9.73773C13.863 9.06275 13.5229 8.15431 13.065 7.23856C12.6109 6.33027 12.0194 5.37095 11.276 4.62757C10.5309 3.88242 9.56422 3.28916 8.38554 3.28916C7.3942 3.28916 6.49049 3.7984 5.74045 4.43504C4.97718 5.0829 4.27224 5.94756 3.66172 6.85202C3.49609 7.0974 3.33545 7.34868 3.18072 7.60291V3Z" fill="white"/>
<path d="M23.4827 14.6677C23.6611 14.4401 23.8339 14.2066 24 13.9704V18.0361H3.18072V11.4956C3.58331 10.4408 4.2645 9.06004 5.09972 7.82267C5.66029 6.9922 6.26378 6.2665 6.86316 5.75773C7.47577 5.23775 7.98893 5.0241 8.38554 5.0241C8.9418 5.0241 9.49321 5.29831 10.0493 5.85436C10.6071 6.41218 11.0999 7.1878 11.5133 8.01445C11.9229 8.83365 12.2334 9.66014 12.4421 10.2864C12.546 10.5981 12.6237 10.8571 12.6749 11.0365C12.7006 11.1262 12.7195 11.1958 12.7319 11.242L12.7453 11.2932L12.7483 11.3049L12.7488 11.3068C12.752 11.3197 12.7557 11.3329 12.7595 11.3457L13.5904 11.0964C12.7595 11.3457 12.7594 11.3454 12.7595 11.3457L12.7598 11.3468L12.7603 11.3485L12.7618 11.3535L12.7668 11.3696L12.7845 11.4257C12.7997 11.4734 12.8219 11.5412 12.8511 11.6262C12.9094 11.7962 12.9957 12.0358 13.1102 12.3222C13.3383 12.8922 13.6831 13.6599 14.1477 14.4343C15.0304 15.9054 16.5559 17.747 18.7952 17.747C19.7468 17.747 20.6343 17.3218 21.3921 16.7656C22.1582 16.2034 22.8677 15.4523 23.4827 14.6677Z" fill="white"/>
</svg>
