<svg width="16" height="16" viewBox="0 0 16 16" fill="none" xmlns="http://www.w3.org/2000/svg">
<path d="M13.8 3C13.9105 3 14 3.08954 14 3.2V12.8C14 12.9105 13.9105 13 13.8 13H13.2C13.0895 13 13 12.9105 13 12.8V3.2C13 3.08954 13.0895 3 13.2 3L13.8 3Z" fill="#546174"/>
<path d="M2 11.9703V4.01189C2 3.16498 2.97965 2.69418 3.64094 3.22322L8.61491 7.20239C9.1203 7.6067 9.12037 8.37542 8.61493 8.77977L3.64094 12.759C2.97965 13.288 2 12.8172 2 11.9703ZM7.99024 7.9989C7.99524 7.99489 7.99524 7.98728 7.99024 7.98328L3.01625 4.00409C3.0097 3.99885 3 4.00351 3 4.01189V11.9703C3 11.9787 3.0097 11.9833 3.01625 11.9781L7.99024 7.9989Z" fill="#546174"/>
<path d="M12 3.2C12 3.08954 11.9105 3 11.8 3L11.2 3C11.0895 3 11 3.08954 11 3.2V12.8C11 12.9105 11.0895 13 11.2 13H11.8C11.9105 13 12 12.9105 12 12.8V3.2Z" fill="#546174"/>
</svg>
