<svg width="22" height="22" viewBox="0 0 22 22" fill="none" xmlns="http://www.w3.org/2000/svg">
<path d="M0 11C0 4.92487 4.92487 0 11 0V0C17.0751 0 22 4.92487 22 11V11C22 17.0751 17.0751 22 11 22V22C4.92487 22 0 17.0751 0 11V11Z" fill="#4DBA2F"/>
<path d="M6.03664 12.9343L11.0628 4.13856C11.1683 3.95381 11.4347 3.95381 11.5403 4.13856L16.5664 12.9343C16.6712 13.1176 16.5388 13.3457 16.3277 13.3457H6.27541C6.06426 13.3457 5.93188 13.1176 6.03664 12.9343Z" fill="#FDFDFD"/>
<path d="M9.92653 12.2457C9.92653 12.0938 10.0497 11.9707 10.2015 11.9707H12.4015C12.5534 11.9707 12.6765 12.0938 12.6765 12.2457V17.1957C12.6765 17.3476 12.5534 17.4707 12.4015 17.4707H10.2015C10.0497 17.4707 9.92653 17.3476 9.92653 17.1957V12.2457Z" fill="#FDFDFD"/>
</svg>
